<?xml version="1.0" encoding="UTF-8"?>
<svg id="Layer_1" xmlns="http://www.w3.org/2000/svg" xmlns:xlink="http://www.w3.org/1999/xlink" version="1.1" viewBox="0 0 214 103">
  <!-- Generator: Adobe Illustrator 29.6.1, SVG Export Plug-In . SVG Version: 2.1.1 Build 9)  -->
  <defs>
    <style>
      .st0 {
        fill: url(#linear-gradient1);
      }

      .st1 {
        fill: url(#linear-gradient);
      }

      .st2 {
        fill: #fcb017;
      }
    </style>
    <linearGradient id="linear-gradient" x1="461.87" y1="-179.04" x2="297.23" y2="-225.01" gradientTransform="translate(-289 -151.5) scale(1 -1)" gradientUnits="userSpaceOnUse">
      <stop offset="0" stop-color="#ffdb8c"/>
      <stop offset=".5" stop-color="#fcb017"/>
      <stop offset="1" stop-color="#c4892b"/>
    </linearGradient>
    <linearGradient id="linear-gradient1" x1="462.51" y1="-151.99" x2="375.32" y2="-198.46" xlink:href="#linear-gradient"/>
  </defs>
  <path d="M32.71,69.72l1.05.06c-.35-.02-.71-.04-1.06-.07h0Z"/>
  <path d="M38.89,69.92c.27,0,.54,0,.81,0-.36,0-.71,0-1.07,0h.26Z"/>
  <path d="M198.99,56.48v16.92c0,3.17,2.56,5.75,5.73,5.75h7.13c.63,0,1.15.51,1.15,1.15v7.66c0,.63-.51,1.15-1.15,1.15h-11.32c-6.32,0-11.45-5.15-11.45-11.49v-43.93c0-.63.51-1.15,1.15-1.15h7.63c.63,0,1.15.51,1.15,1.15v12.84h8.71c.63,0,1.15.51,1.15,1.15v7.66c0,.63-.51,1.15-1.15,1.15h-8.71Z"/>
  <path d="M184.5,42.7h-7.63c-.63,0-1.14.51-1.14,1.15v44.1c0,.63.51,1.15,1.14,1.15h7.63c.63,0,1.14-.51,1.14-1.15v-44.1c0-.63-.51-1.15-1.14-1.15Z"/>
  <path class="st2" d="M181.05,26.42c.2.1.37.15.56.29.71.57.81,2.43,1.13,3.31.18.48.44.65.86.9.75.46,2.87,1.37,3.29,1.98.12.18.17.4.25.6v.49c-.08.17-.11.33-.2.5-.39.71-2.77,1.66-3.56,2.2-1.41.95-.55,4.23-2.54,4.4-2.21.18-1.59-2.95-2.49-4.06-.54-.67-2.65-1.46-3.48-2.03-.33-.23-.48-.49-.64-.85v-.78c.1-.18.13-.33.25-.51.43-.6,2.68-1.54,3.43-2.03,1.06-.69.93-2.44,1.39-3.55.2-.47.52-.66.97-.86h.78,0Z"/>
  <path d="M119.97,42.67c.58-.06,1.03-.55,1.03-1.14v-7.81c0-.65-.53-1.17-1.18-1.15-19.99.63-29.55,17.41-30.01,31.41,3.39-.73,6.74-1.5,10.06-2.29.79-6.1,4.27-17.37,20.1-19.02h0Z"/>
  <path d="M98.58,75.26c-2.94.68-5.87,1.32-8.78,1.91,0,4.44,0,8.78,0,10.78,0,.63.51,1.15,1.15,1.15h7.69c.64,0,1.15-.52,1.14-1.16-.03-2.34-.09-7.82-.13-12.94-.35.09-.7.17-1.05.26h-.02Z"/>
  <path d="M144.59,41.36c-2.08.33-4.11.94-6.03,1.81-.41.19-.68.6-.68,1.05v6.24c5.95-2.14,12.46-4.74,18.83-7.89-3.7-1.39-7.83-1.89-12.12-1.21Z"/>
  <path d="M134.45,45.55v-11.87c0-.63-.51-1.15-1.14-1.15h-7.71c-.63,0-1.15.51-1.15,1.15v21.28c1.97-.61,3.92-1.23,5.85-1.86,1.34-.45,2.73-.92,4.17-1.42v-6.14s0,0,0,0h0Z"/>
  <path d="M161.69,61.09s0,0,0,.01c.06.19.11.39.16.59.01.05.02.09.03.14.04.16.07.32.11.48.02.09.03.17.04.26.02.13.05.26.07.39.02.12.03.24.04.36.01.1.03.2.04.31.01.14.02.28.03.43,0,.09.01.18.02.27,0,.02,0,.03,0,.05,0,.1,0,.19,0,.29,0,.11,0,.23,0,.35v.06c0,.11,0,.23,0,.34,0,.13,0,.26-.01.39,0,.11-.02.22-.03.34,0,.13-.02.26-.03.38-.01.11-.03.22-.04.33-.02.12-.03.25-.05.37-.02.11-.04.22-.06.33-.02.12-.04.24-.07.37-.02.11-.05.22-.07.32-.03.12-.06.24-.09.36-.03.11-.06.21-.09.32-.03.12-.07.23-.1.35-.03.11-.07.21-.1.31-.04.11-.08.23-.12.34-.04.1-.08.2-.12.31-.04.11-.09.22-.13.33-.04.1-.09.2-.13.3-.05.11-.1.22-.15.32-.05.1-.1.2-.15.29-.06.11-.11.21-.17.31-.05.1-.11.19-.16.29-.06.1-.12.2-.18.3-.06.09-.12.18-.18.28-.06.1-.13.2-.2.29-.06.09-.13.18-.19.27-.07.09-.14.19-.21.28-.07.09-.13.17-.2.26-.07.09-.15.18-.22.27-.07.08-.14.17-.21.25-.08.09-.16.17-.24.26-.07.08-.15.16-.22.24-.08.08-.16.17-.25.25-.08.08-.15.15-.24.23-.08.08-.17.16-.26.23-.08.07-.16.14-.24.21-.09.08-.18.15-.27.22-.08.07-.17.14-.26.2-.09.07-.19.14-.28.21-.09.06-.18.13-.27.19-.1.07-.19.13-.29.2-.09.06-.18.12-.27.18-.1.06-.2.12-.3.18-.09.06-.19.11-.28.16-.1.06-.21.11-.31.17-.1.05-.19.1-.29.15-.11.05-.21.1-.32.15-.1.05-.2.09-.3.14-.11.05-.22.09-.33.14-.1.04-.2.08-.3.12-.11.04-.23.08-.34.12-.1.04-.21.07-.31.11-.11.04-.23.07-.35.1-.1.03-.21.06-.32.09-.12.03-.24.06-.36.09-.11.03-.21.05-.32.07-.12.03-.24.05-.36.07-.11.02-.22.04-.33.06-.12.02-.25.03-.37.05-.11.01-.22.03-.33.04-.13.01-.25.02-.38.03-.11,0-.22.02-.33.03-.13,0-.26,0-.39.01-.1,0-.19,0-.29,0h-.08c-.13,0-.25,0-.37,0-.1,0-.2,0-.29,0-.22,0-.44-.03-.65-.05-.01,0-.02,0-.03,0-7.04-.68-12.54-6.63-12.54-13.88h0c0-.08,0-.15,0-.23v-.14c-3.18,1.17-6.46,2.3-9.85,3.39l.13,1.03c1.68,10.28,10.01,18.44,20.3,19.84l2.44.23h1.76l1.46-.11c10.59-1.02,19.39-9.17,21.23-19.68,1.31-7.48-.91-14.52-5.26-19.7-2.92,1.72-5.93,3.37-9.05,4.97,1.91,1.72,3.35,3.96,4.08,6.49h0Z"/>
  <path d="M162.14,63.32c.01.1.02.2.04.31,0-.1-.02-.2-.04-.31Z"/>
  <path d="M162.03,62.57c.02.13.05.26.06.39-.02-.13-.04-.26-.06-.39Z"/>
  <path d="M161.69,61.11c.06.19.11.39.16.59-.05-.2-.1-.39-.16-.59Z"/>
  <path d="M162.12,66.83c-.02.12-.03.25-.05.37.02-.12.03-.25.05-.37Z"/>
  <path d="M161.88,61.83c.04.16.07.32.1.48-.03-.16-.07-.32-.1-.48Z"/>
  <path d="M160.33,72.04c-.06.1-.12.2-.18.3.06-.1.12-.2.18-.3Z"/>
  <path d="M162.19,66.11c0,.13-.02.26-.03.38.01-.13.02-.25.03-.38Z"/>
  <path d="M162.01,67.53c-.02.12-.04.24-.07.37.02-.12.05-.24.07-.37Z"/>
  <path d="M161.69,68.89c-.03.12-.07.23-.1.35.04-.12.07-.23.1-.35Z"/>
  <path d="M162.24,65c0-.12,0-.23,0-.35,0,.14,0,.27,0,.4v-.06h0Z"/>
  <path d="M161.24,70.2c-.04.11-.09.22-.13.33.05-.11.09-.22.13-.33Z"/>
  <path d="M162.23,65.39c0,.13,0,.26-.01.39,0-.13.01-.26.01-.39Z"/>
  <path d="M161.48,69.56c-.04.11-.08.23-.12.34.04-.11.08-.23.12-.34Z"/>
  <path d="M157.81,75.21c-.08.08-.17.16-.26.23.09-.08.17-.16.26-.23Z"/>
  <path d="M153.85,77.8c-.11.05-.22.09-.33.14.11-.04.22-.09.33-.14Z"/>
  <path d="M155.66,76.85c-.1.06-.2.12-.3.18.1-.06.2-.12.3-.18Z"/>
  <path d="M161.69,61.09c-.74-2.54-2.17-4.78-4.08-6.49,0,0-.01,0-.02,0,1.92,1.72,3.36,3.96,4.1,6.49h0Z"/>
  <path d="M154.47,77.52c-.1.05-.21.1-.32.15.11-.05.21-.1.32-.15Z"/>
  <path d="M152.56,78.29c-.11.04-.23.07-.35.1.12-.03.23-.07.35-.1Z"/>
  <path d="M155.07,77.2c-.1.06-.21.11-.31.17.1-.06.21-.11.31-.17Z"/>
  <path d="M153.22,78.06c-.11.04-.23.08-.34.12.11-.04.23-.08.34-.12Z"/>
  <path d="M150.53,78.77c-.12.02-.25.03-.37.05.13-.02.25-.03.37-.05Z"/>
  <path d="M148.35,78.94h.04c-.14,0-.28,0-.42,0,.12,0,.25,0,.37,0Z"/>
  <path d="M151.22,78.64c-.12.03-.24.05-.36.07.12-.02.24-.04.36-.07Z"/>
  <path d="M147.68,78.93c-.22-.01-.43-.03-.65-.05.21.02.43.04.65.05Z"/>
  <path d="M134.46,65h0c0,7.25,5.5,13.2,12.54,13.88-6.99-.69-12.43-6.69-12.54-13.88Z"/>
  <path d="M149.11,78.92c-.13,0-.26,0-.39.01.13,0,.26,0,.39-.01Z"/>
  <path d="M158.29,74.74c-.08.08-.16.17-.25.25.08-.08.16-.16.25-.25Z"/>
  <path d="M157.3,75.66c-.09.08-.18.15-.27.22.09-.07.18-.15.27-.22Z"/>
  <path d="M38.3,82.86c-.47,0-.93,0-1.4,0h-.03c-.17,0-.35,0-.52,0,5.22,3.93,11.71,6.26,18.75,6.26,8.89,0,16.91-3.72,22.61-9.71-3.26.53-6.48,1-9.65,1.41-10.7,1.37-20.43,2.04-29.75,2.04h0Z"/>
  <path d="M86.36,57.72c0,2.46-.28,4.86-.82,7.16-2.46.51-4.94,1-7.44,1.47-1.35.25-2.68.49-3.99.72,1.42-2.86,2.22-6.08,2.22-9.49,0-10.05-6.93-18.47-16.25-20.73-1.6-.39-3.27-.59-4.98-.59-.85,0-1.7.05-2.52.15-3.58.43-6.88,1.74-9.69,3.72-2.07,1.46-3.87,3.29-5.31,5.39-2.35,3.43-3.72,7.58-3.72,12.06,0,5.18,1.84,9.93,4.9,13.62-2.15.09-4.15.14-6.1.14s-3.95-.05-5.81-.15c-1.93-4.08-3.01-8.64-3.01-13.46,0-1.88.16-3.73.48-5.52.23-1.3.54-2.57.92-3.8.58-1.88,1.34-3.68,2.24-5.39.83-1.57,1.78-3.05,2.86-4.45,5.72-7.44,14.68-12.23,24.77-12.23,2.43,0,4.8.28,7.08.81,1.68.39,3.31.92,4.87,1.57,1.27.53,2.51,1.14,3.69,1.83,1.09.63,2.14,1.33,3.15,2.09,7.58,5.73,12.48,14.83,12.48,25.09Z"/>
  <path d="M42.42,79.94c.18,0,.35,0,.53-.01-.18,0-.35,0-.53.01Z"/>
  <path d="M40.49,79.97c.21,0,.42,0,.63,0-.21,0-.42,0-.63,0Z"/>
  <path d="M65.76,78.2c.29-.03.58-.07.87-.11-.29.04-.58.07-.87.11Z"/>
  <path d="M67.76,77.95c.71-.09,1.43-.19,2.14-.29-.72.1-1.43.19-2.14.29Z"/>
  <path d="M63.85,78.43s.08,0,.13-.01c-.04,0-.08,0-.13.01Z"/>
  <path d="M70.32,77.61c.67-.09,1.34-.19,2.01-.29-.67.1-1.34.19-2.01.29Z"/>
  <path d="M72.5,77.3c1.89-.28,3.78-.57,5.66-.89l-.92.15c-1.59.26-3.17.51-4.75.74Z"/>
  <path d="M39.29,79.98c-.22,0-.45,0-.67,0,.22,0,.45,0,.67,0Z"/>
  <path d="M38.88,74.06l5.77-.25-.07-.08c-2.2.16-4.41.29-6.62.37.3-.01.61-.02.92-.03Z"/>
  <path d="M87.91,67.32c-.37.08-.74.15-1.11.23l1.11-.23Z"/>
  <path d="M81.23,68.67c-.66.13-1.33.26-1.99.38.67-.13,1.33-.26,1.99-.38Z"/>
  <path d="M76.59,69.54c-.39.07-.78.14-1.17.21.41-.07.79-.14,1.17-.21Z"/>
  <path d="M84.4,68.04c-.67.14-1.34.27-2.01.4.67-.13,1.34-.27,2.01-.4Z"/>
  <path d="M78.25,69.24c-.45.08-.9.17-1.35.25.47-.09.92-.17,1.35-.25Z"/>
  <path d="M69.02,70.87l5.49-.96c-1.82.32-3.64.62-5.47.91l-.02.05Z"/>
  <path d="M37.59,74.11c-1.19.04-2.38.07-3.57.08,1.17-.01,2.36-.04,3.57-.08Z"/>
  <path class="st1" d="M176.02,38.87c-.31-.17-.76-.4-1.07-.55-.63-.31-1.23-.61-1.71-.94-.41-.28-.71-.59-.96-.9-2.87,2.28-6.04,4.21-8.02,5.35-10.42,5.91-21.73,10.2-33.09,13.99-14.18,4.66-28.65,8.44-43.26,11.5l-1.11.23c-.8.17-1.6.33-2.4.49-.67.14-1.34.27-2.01.4-.38.08-.77.15-1.16.23-.66.13-1.33.26-1.99.38-.2.04-.41.08-.61.12-.12.02-.25.04-.37.07-.43.08-.88.16-1.35.25-.11.02-.21.04-.32.06-.37.07-.76.14-1.17.21-.3.05-.6.11-.91.16l-5.49.96.02-.05c-6.71,1.07-13.45,1.96-20.22,2.57-1.41.12-2.83.23-4.24.33l.07.08-5.77.25c-.31.01-.61.02-.92.03-.13,0-.25,0-.38.01-1.21.04-2.4.07-3.57.08h-.35c-.34,0-.67,0-1.01,0h-.32c-.22,0-.44,0-.67,0-.32,0-.63,0-.95-.01-.3,0-.6-.01-.9-.02-.18,0-.36,0-.55-.02-.99-.03-1.99-.07-2.98-.13l-1.31-.07v-.02c-1.97-.14-3.93-.34-5.89-.61-3.94-.61-12.1-2.15-13.38-6.36-1.07-5.56,9.54-12.61,13.88-15.32.71-.44,1.43-.86,2.15-1.29.4-1.82.95-3.62,1.64-5.35-1.98,1.01-3.93,2.06-5.86,3.17-5.79,3.47-14.21,8.84-16.22,15.71-1.9,7.26,4.88,11.3,10.7,13.06,8.07,2.45,16.55,2.89,24.89,3.02.57,0,1.14,0,1.7,0,.22,0,.45,0,.67,0,.4,0,.8,0,1.2,0,.21,0,.42,0,.63,0,.43,0,.86-.01,1.29-.02.18,0,.35,0,.53-.01.49-.01.97-.03,1.45-.04.12,0,.25,0,.37-.01.56-.02,1.13-.04,1.69-.06.05,0,.1,0,.14,0,5.76-.24,11.52-.72,17.25-1.38.04,0,.08,0,.13-.01.6-.07,1.19-.14,1.78-.21.29-.03.58-.07.87-.11.35-.04.7-.09,1.05-.13.03,0,.05,0,.08,0,.71-.09,1.42-.19,2.14-.29.14-.02.27-.04.41-.06.67-.09,1.34-.19,2.01-.29.06,0,.11-.02.17-.03,1.57-.23,3.16-.48,4.75-.74l.92-.15c6.63-1.1,13.23-2.43,19.78-3.95,23.89-5.74,47.75-13.5,68.92-26.3,2.57-1.65,6.14-4,9.27-6.8,0-.02,0-.04-.01-.06-.02-.13-.06-.29-.09-.44h0Z"/>
  <path class="st0" d="M87.3,26.23c11.82-2.73,23.78-4.9,35.83-6.25,11.97-1.3,24.12-1.98,36.12-.87,4.39.45,14.65,1.76,18.23,5.79.61-.65,1.3-.96,1.62-1.11l.56-.25h2.08c-3.92-6.3-15.67-7.57-22.17-8.12-12.3-.85-24.59.17-36.78,1.69-8.09,1.03-16.13,2.38-24.13,3.97-9.2,1.84-18.35,3.98-27.41,6.45,1.09.59,2.16,1.25,3.19,1.96,4.26-1.17,8.55-2.26,12.86-3.27h0Z"/>
</svg>