<svg width="77" height="78" viewBox="0 0 77 78" fill="none" xmlns="http://www.w3.org/2000/svg">
<path d="M0 38.6449C0 17.3819 17.237 0.144897 38.5 0.144897C59.763 0.144897 77 17.3819 77 38.6449C77 59.9079 59.763 77.1449 38.5 77.1449C17.237 77.1449 0 59.9079 0 38.6449Z" fill="white"/>
<path d="M51.8334 38.6449V55.3116H25.1667V38.6449M38.5 55.3116V30.3116M38.5 30.3116H31C29.895 30.3116 28.8352 29.8726 28.0538 29.0912C27.2724 28.3098 26.8334 27.25 26.8334 26.1449C26.8334 25.0399 27.2724 23.9801 28.0538 23.1987C28.8352 22.4173 29.895 21.9783 31 21.9783C36.8334 21.9783 38.5 30.3116 38.5 30.3116ZM38.5 30.3116H46C47.1051 30.3116 48.1649 29.8726 48.9463 29.0912C49.7277 28.3098 50.1667 27.25 50.1667 26.1449C50.1667 25.0399 49.7277 23.9801 48.9463 23.1987C48.1649 22.4173 47.1051 21.9783 46 21.9783C40.1667 21.9783 38.5 30.3116 38.5 30.3116ZM21.8334 30.3116H55.1667V38.6449H21.8334V30.3116Z" stroke="#FFB000" stroke-width="4" stroke-linecap="round" stroke-linejoin="round"/>
</svg>
